<?xml version="1.0" encoding="utf-8"?>
<!-- Generator: Adobe Illustrator 23.0.0, SVG Export Plug-In . SVG Version: 6.00 Build 0)  -->
<svg version="1.1" id="圖層_1" xmlns="http://www.w3.org/2000/svg" xmlns:xlink="http://www.w3.org/1999/xlink" x="0px" y="0px"
	 viewBox="0 0 144.2 125.9" style="enable-background:new 0 0 144.2 125.9;" xml:space="preserve">
<style type="text/css">
	.st0{fill:#FFFFFF;}
</style>
<title>title</title>
<path class="st0" d="M7.1,3.4c0-1.4-0.1-2.1-0.1-2.2c0-0.5,0.1-0.8,0.4-0.8h0.7L8.1,10.8C8,17.7,7.9,23.9,7.9,29.2
	c-0.1,5.3-0.1,11.1-0.2,17.3C7.6,52.7,7.5,58,7.5,62.3c0,4.3,0,6.9,0,7.6c-0.1-0.1-0.1-0.2-0.2-0.3c-0.1-0.2-0.2-0.4-0.3-0.6
	c-0.3-0.6-0.5-1.2-0.7-1.9C6.4,66.4,6.6,63,6.7,57C6.8,51,6.9,43.9,7,35.6l0.1-10.2c0.2-4.7,0.1-9.4-0.3-14.1
	c-0.1-0.7-0.3-1.5-0.6-2.1C5.7,8.3,5.1,7.5,4.5,6.7C3.7,5.7,3,5,2.5,4.3c-0.1,0-0.2-0.1-0.3-0.1C2,4.1,1.8,4,1.7,4
	C1.5,4,1.3,4,1.1,4.1c0,0.2,0,1.8,0,4.6c0,2.5,0,6.5,0,12.1s0,10.8,0,15.7s0,9,0.1,12.1s0,4.8,0.1,4.9c0,1.2,0,1.9,0,3.1
	c-0.4-0.9-0.6-1.3-1-2.2c0-2.2,0-5.8,0-11c0-5.2,0-10.9,0-17.2s0-12.1-0.1-17.5S0,0.5,0,0C1.6,1.3,3,2.7,4.4,4.2
	c1,1.1,1.9,2.3,2.8,3.6C7.2,6.3,7.2,4.8,7.1,3.4z"/>
<path class="st0" d="M16.7,2.9c0,0.5,0,1-0.2,1.4c-1.6,0.2-3.2,0.2-4.8,0.1c-0.3,0-0.6-0.1-0.9-0.1c-0.1-0.1-0.3-0.1-0.4-0.2
	c-0.1,0-0.2,0.3-0.5,0.8C9.7,5.4,9.5,6,9.4,6.6c0,0.9,0,1.3,0,2.2c1.5,0.3,2.8,0.5,4,0.7s1.9,0.2,2.1,0.2c0.5,0.1,0.8,0.4,1,0.8
	c0,1.5-0.5,2.2-1.5,1.9c-0.3-0.1-0.5-0.2-0.7-0.3c-0.2-0.1-0.4-0.2-0.5-0.3l-1.4-0.3c-0.6-0.2-1.3-0.2-1.9,0.1
	c-0.4,0.3-0.7,1-0.9,2.1c-0.3,1.9-0.4,3.8-0.4,5.6c0,1,0.1,4.2,0.2,9.7s0.4,11.4,0.8,17.9s0.9,12,1.5,16.6c0.5,3.5,0.9,6.4,1.4,8.7
	s0.8,4.2,1.1,5.6s0.7,2.7,0.9,4c0.3,1.1,0.4,2.2,0.5,3.3L15,83.9c-1.6-3.9-2.8-9.5-3.7-16.4s-1.5-13-1.9-18.8S8.9,38.5,8.8,35
	c-0.1-2.6-0.1-7.9-0.2-15.7S8.5,7.5,8.5,7.3l0.1-5C9,1.9,9.4,1.8,9.9,1.8c0.6,0,1.7,0,3.4,0c1,0,2-0.1,3.1-0.3
	C16.5,1.5,16.7,2.1,16.7,2.9z"/>
<path class="st0" d="M22.5,1.7c0.1,0,0.3,0,0.6,0c0.2,0,0.4,0,0.6,0c1.1,0,1.6,1.4,1.5,4.2c0,1.9-0.3,3.8-1,5.6
	c-0.9,2.3-2,4.6-3.2,6.8c-1.5,2.8-2.9,5.1-3.2,6.5c-1.2,6.3-0.3,14.8-0.4,21.1S17.3,57,17.3,60.4s-0.1,6.8-0.1,10.3s-0.1,8.8-0.2,16
	c-0.4-0.7-0.7-1-1.1-1.8c0.1-4.5,0.3-11.8,0.5-21.7C16.6,53,16.8,42.9,17,32.7c0.2-10.4,0.4-20.7,0.5-31.1L22.5,1.7z M22,4.3
	c-1.2,0.1-2.5,0.2-3.6,0.5c-0.1,5.3-0.2,8-0.3,13.3c0.8-0.2,1.7-1,2.6-2.5c1-1.7,1.8-3.4,2.4-5.2c0.5-1.2,0.9-2.5,1.1-3.9
	c0.1-1.2-0.8-2.2-2-2.3C22.1,4.4,22.1,4.3,22,4.3z"/>
<path class="st0" d="M24.3,77.9c0.2-8.4,0.4-17.3,0.6-26.6c0.2-11.2,0.4-22.4,0.6-33.6c0.1-9.3,0.1-14.6,0-16h1.1l-0.2,9
	c2.4,0.3,3.6,0.5,6.1,0.8c0.1,0,0.2,0,0.4,0.1l0.2,0.1c0.2-1.3,0.3-2.5,0.2-3.8c0-0.8,0-1.5,0-2.1s0-1.3-0.1-1.9s-0.1-1.2-0.1-1.8
	c0.1-0.1,0.2-0.1,0.3-0.2c0.1-0.1,0.3-0.1,0.5-0.1c0.2,0,0.4,0.1,0.5,0.3c-0.5,11.1-0.6,22.2-0.8,33.3c-0.1,4.5-0.2,10.6-0.3,18.2
	s-0.2,14.9-0.3,22c-0.1,7.1-0.2,13.4-0.2,18.8c0,5.4-0.1,9.1,0,11c-0.1,0.5-0.5,0.5-1-0.1c-0.3-0.3-0.5-0.7-0.4-1.1
	c0.1-2.1,0.3-8.8,0.6-20c0.3-12.6,0.5-25.1,0.8-37.6c0.1-5.8,0.2-10.9,0.3-15.4c0.1-4.4,0.1-7.5,0.2-9.3c0.1-1.8-0.2-3.7-0.9-5.4
	c-0.4-1-1.3-1.8-2.4-2.1c-1.6-0.3-2.7,0.8-3.4,3.2c0,1.5-0.1,4.2-0.2,8c-0.1,3.8-0.2,8.2-0.3,13.3c-0.2,11.8-0.5,23.7-0.7,35.5
	C25.1,85.3,25,93.3,25,98l-0.2-0.1c-0.1,0-0.2-0.1-0.2-0.2c-0.3-0.6-0.6-1.1-0.8-1.7C23.9,92.4,24.1,86.4,24.3,77.9z"/>
<path class="st0" d="M42.6,4c0,0.7,0,1.3-0.2,2c-1.6,0.4-3.2,0.5-4.8,0.5c-0.3,0-0.6-0.1-0.9-0.1c-0.2-0.1-0.3-0.2-0.4-0.3
	c-0.1,0-0.2,0.4-0.5,1.2c-0.3,0.8-0.5,1.7-0.5,2.6c0,1.3,0,1.9-0.1,3.2c1.4,0.2,2.7,0.3,4.1,0.3c1.2,0,2,0,2.1,0
	c0.5,0.1,0.9,0.5,1,1c0,2.1-0.6,3.1-1.6,2.9c-0.3,0-0.5-0.1-0.8-0.3c-0.2-0.1-0.3-0.2-0.5-0.3l-1.4-0.2c-0.7-0.2-1.4,0-1.9,0.5
	c-0.6,1-1,2.2-1,3.4c-0.2,1.8-0.4,4.6-0.5,8.5c0,1.5,0,6.2,0.1,14.2s0.3,16.4,0.7,25.4s0.9,16.3,1.5,22c0.5,4.3,1,7.7,1.5,10.4
	s0.9,4.7,1.3,6.2s0.7,2.9,1,4.1c0.3,1.2,0.5,2.5,0.6,3.7c-0.3-0.2-0.5-0.4-0.8-0.6c-1.7-3.2-3.1-9.1-4-17.7S35.2,79.9,34.8,72
	s-0.5-14.5-0.6-19.6c0-3.9,0-11.7,0-23.4s0-17.7,0-18c0.1-3,0.1-4.5,0.1-7.5c0.3-0.5,0.8-0.8,1.3-0.8c0.6-0.1,1.7-0.1,3.4-0.1
	c1-0.1,2.1-0.2,3.1-0.4C42.4,2,42.6,2.8,42.6,4z"/>
<path class="st0" d="M42,101.1c0.1-6.1,0.2-13.1,0.3-21.1c0.4-25.7,1.5-51.5,0.8-77.2l1.4,0.6C44,32.8,43.6,62,43.1,91.3
	c0,0.9,0,2.1-0.1,3.8s0,2.8-0.1,3.6c-0.1,3.8,0,6.7,0.1,8.7c0.1,2,0.5,3.2,1,3.6c1.3,0.8,1.9,1.2,3.2,2c0.4,0.1,0.8,0,1.1-0.1
	c0.5-0.1,0.9-0.3,1.2-0.7l0.7,0.3c0,1.2,0.1,2.5,0,4c0,0.6,0,1.7-0.1,3.3c-3-1.5-5.8-3.4-8.4-5.4C41.8,111.6,41.9,107.3,42,101.1z"
	/>
<path class="st0" d="M50.5,31.8c0.4-8.6,1.1-16,1.9-22.2c0.9-6.2,2-9.5,3.1-9.4s2.2,3,3,8.6s1.3,12.8,1.5,21.5
	c0.3,9.7,0.5,19.5,0.4,29.3c0,7.3-0.2,14.7-0.5,22.2s-0.6,14.4-1.1,20.6c-0.3,4.9-0.9,9.8-1.8,14.7c-0.7,3.6-1.6,5.2-2.5,4.8
	c-1.1-0.5-2.1-3.9-2.9-10.1s-1.3-14.3-1.7-24.1c-0.4-10.5-0.4-21.2-0.3-31.7C49.8,48.4,50,40.4,50.5,31.8z M53.6,9.1
	c-0.5,3.5-1,7.8-1.4,12.8s-0.6,9.8-0.8,14.4c-0.2,4.6-0.3,7.9-0.3,10c-0.1,8.9-0.1,13.4-0.3,22.3s0,16.7,0.3,23.9s0.7,12.9,1.3,17.2
	s1.3,6.6,2.1,7c1.3,0.5,2.3-2.9,3-10.2s1.2-15.1,1.4-23.4s0.4-15.6,0.4-22c0.1-8.8,0-16.8-0.1-24C59,30,58.8,23.9,58.4,19
	c-0.2-3.8-0.6-7.5-1.3-11.2c-0.5-2.6-1.1-3.9-1.7-3.9S54.1,5.6,53.6,9.1L53.6,9.1z"/>
<path class="st0" d="M64.7,1.8c0.9,0,1.8,0.1,2.7,0.4c0.8,0.2,1.3,0.6,1.4,1c0,2.5-1,3.8-2.9,3.7c-0.2,0-0.4,0-0.6-0.1l-0.3-0.1
	c-0.6-0.1-1.2,0-1.8,0.2c-0.3,0.1-0.6,0.3-0.9,0.5C62.1,7.7,62,8.1,62,8.4c0,0.4-0.1,0.8-0.1,1.2c-0.3,2.1-0.4,6.4-0.5,13
	c0,6.8,0,14.9,0.2,24.4c0.2,9.6,0.4,19.3,0.7,28.9c0.5,12.6,1.1,25.3,3.5,37.8c0.4,2.3,1,4.6,1.8,6.8c0.7,2.2,1.1,3.4,1.1,3.7
	c-0.2,0.7-0.3,1.1-0.5,1.1c-1.1-0.1-2.2-2.3-3.1-6.5c-1.2-5.8-2-11.6-2.5-17.4c-0.7-7.4-1.2-16-1.5-25.9c-0.4-10.5-0.4-21-0.4-31.4
	c0-2.6,0-6.7,0-12.1s0-10.7,0.1-15.7C60.8,9.2,60.9,4.8,61,3C61,2.2,62.2,1.7,64.7,1.8z"/>
<path class="st0" d="M77,4.4c0,0.7,0,1.5-0.1,2.2c-1.6,0.5-3.2,0.7-4.8,0.8c-0.3,0-0.6,0-0.9-0.1c-0.2-0.1-0.3-0.2-0.4-0.3
	c-0.2,0.4-0.4,0.9-0.5,1.4c-0.3,1-0.4,2-0.5,3.1c0,1.5,0,2.3,0,3.8c1.4,0,2.7-0.1,4.1-0.3c1.2-0.2,2-0.3,2.2-0.3c0.5,0,0.8,0.3,1,1
	c0,2.3-0.5,3.5-1.5,3.5c-0.3,0-0.5,0-0.8-0.2c-0.2-0.1-0.3-0.2-0.5-0.3h-1.4c-0.7,0-1.5,0.3-1.9,0.9c-0.6,1.3-0.9,2.7-0.9,4.1
	c-0.2,2.1-0.3,5.5-0.3,10c0,1.8,0.1,7.3,0.4,16.4c0.3,9.6,0.7,19.3,1.2,28.9c0.5,10,1.2,18,2,23.8c0.6,4.4,1.2,7.8,1.7,10.3
	s1,4.4,1.4,5.6c0.4,1.3,0.8,2.5,1.1,3.5c0.3,1.1,0.6,2.3,0.6,3.5l-0.8,0.1c-1.8-1.7-3.3-7-4.5-15.7S71,92.6,70.5,83.7
	s-0.8-16.4-0.9-22.3c-0.1-4.5-0.2-13.6-0.4-27.3s-0.3-20.8-0.3-21.2c0-3.6,0-5.4,0-8.9c0.2-0.6,0.7-0.9,1.3-1
	c0.6-0.1,1.7-0.1,3.4-0.2c1-0.1,2.1-0.3,3.1-0.5C76.8,2.2,77,3.1,77,4.4z"/>
<path class="st0" d="M84.8,6.3c-0.1-2.5-0.1-3.8-0.1-4c0-0.9,0.1-1.4,0.4-1.4h0.7L86,19.1c0.1,10.8,0.2,21.7,0.3,32.5
	c0.1,10.2,0.2,20.3,0.3,30.5c0.1,10.9,0.2,20.1,0.3,27.7c0.1,7.5,0.2,11.9,0.3,13c-0.1,0.1-0.2,0.2-0.2,0.3
	c-0.1,0.1-0.2,0.2-0.4,0.3c-0.4,0.1-0.6-0.1-0.8-0.6c0.1-2,0.2-8.5,0.1-19.4c0-12.9-0.1-25.9-0.2-38.8c0-7.4-0.1-11.1-0.1-18.5
	c-0.1-13.1-0.3-21.5-0.7-25.3c-0.1-1.2-0.3-2.4-0.7-3.5c-0.5-1.3-1.1-2.6-1.8-3.9c-0.8-1.5-1.5-2.9-2.1-4.2C80,9,79.9,8.9,79.7,8.9
	c-0.1-0.1-0.3-0.1-0.5-0.1c-0.2,0-0.4,0.1-0.5,0.3c0,0.5,0,3.9,0,10.1c0,5.6,0.1,14.5,0.1,26.7c0.1,11.5,0.2,23.1,0.3,34.6
	c0.1,10.8,0.2,19.6,0.2,26.4c0.1,6.8,0.1,10.3,0.1,10.4c0,2.6,0,3.9,0.1,6.5l-1.2,0.2c0-5,0-13.3-0.1-25.1C78.2,86,78.1,73,78,59.9
	C78,46.6,77.9,33.3,77.8,20C77.7,7.8,77.6,1.2,77.5,0c1.8,3.2,3.3,6,4.5,8.3c1.2,2.3,2.2,4.3,2.9,5.9C84.9,11.5,84.9,8.8,84.8,6.3z"
	/>
<path class="st0" d="M88.7,1.5c0.5,0,1.1,0,1.6,0.1c0.4,0.1,0.9,0.1,1.3,0.1c1.2,0,2-0.3,2.3-0.8h2.3c0,3.8-0.3,5.8-0.8,5.8
	c-0.1,0-0.3-0.1-0.3-0.2c-0.1-0.1-0.2-0.3-0.2-0.4S94,6.1,92.9,6s-1.8-0.1-2-0.1C91,13.9,91,18,91.1,26c0.3,31.6,0.5,63.1,1.2,94.7
	c-0.4,0.2-0.5,0.3-0.9,0.4s-0.4,0-0.5-0.2c-0.1-0.8-0.1-1.6-0.1-2.4c0.1-2.1,0.1-9.1,0-20.9c-0.1-14.9-0.3-29.9-0.4-44.8l-0.3-28.2
	C90.1,16,90,9.9,90,6.3h-0.7c-1,0-2-0.1-3-0.3c0-0.4,0-0.8,0-1.3s0-0.8,0-1c0-0.5,0-1.1,0.2-1.5C87.1,1.7,87.9,1.5,88.7,1.5z"/>
<path class="st0" d="M99.5,3.8c0.3,5.4,0.7,14.3,1.3,26.7c0.7,14,1.5,28,2.4,42.1c0.8,12.7,1.6,25.4,2.6,38.1
	c-0.1,0.4-0.3,0.7-0.6,0.9c-0.2,0.2-0.6,0.2-0.8,0c0,0,0,0,0,0c-0.4-0.9-0.2-3.1-0.3-4.4s-0.2-2.3-0.2-3c-0.7-1.5-2-1.6-4-0.3
	c-2.1,1.4-3.5,3.5-4,6c-0.1,3.4-0.2,5.1-0.3,8.6c0,0.2-0.1,0.3-0.1,0.4c0,0.2-0.1,0.3-0.3,0.4c-0.2,0.1-0.5-0.1-0.8-0.6
	c0.6-12.7,1-25.5,1.5-38.2c0.6-15.8,1.1-31.7,1.6-47.5c0.3-10.4,0.7-20.8,1-31.1L99.5,3.8z M96.1,100.4c0.5,0.6,1.3,0.5,2.5-0.1
	c1.8-1.2,3.5-2.7,5-4.3c-1.5-26.1-3-52.2-4.4-78.4C99,18,99,18.2,98.9,18.6C98,45.9,97.1,73.1,96.1,100.4z"/>
<path class="st0" d="M105.4,62.5c0.4-12.2,0.9-24.5,1.5-36.6c0.6-11.8,1.2-19.7,1.7-23.8h0.8c-0.5,6.3-1,13.4-1.4,21.2
	c-0.4,7.8-0.8,15.7-1.1,23.7c-0.3,8-0.5,15.6-0.6,22.9s-0.1,13.6,0,19c0.2,12.5,2,17.4,5.1,14.3l0.7-0.7c0.2-0.2,0.4-0.3,0.6-0.5
	c0.3-0.2,0.4-0.4,0.5-0.5c0.4-0.5,0.7-1.1,0.8-1.8c0.2-1.3,0.3-2.6,0.2-3.9c-0.1-3-0.1-8-0.3-15c-0.1-7-0.3-14.8-0.4-23.2
	c-0.2-9.7-0.4-18.3-0.5-25.7s-0.3-14-0.5-19.5c-0.2-5.6-0.3-8.9-0.5-10h1.6c0,0.1,0,0.2,0,0.3c0,0.2,0,0.5,0,0.8
	c0.1,12,0.4,24,0.6,36c0.3,12.2,0.5,24.4,0.8,36.6c0.3,12.1,0.5,20.9,0.6,26.5c-2.2,2.5-3.3,3.6-5.5,5.8c-1.3,1.3-2.4,0.1-3.5-3.5
	s-1.6-9.3-1.7-17C104.8,83.5,105,75,105.4,62.5z"/>
<path class="st0" d="M121,1.5c1.3,0,1.9,0.3,2,1c0.1,1.1,0,2.3-0.2,3.4c-0.1,0.9-0.4,1.9-0.7,3.1c-0.3,1.1-0.5,2.2-0.7,3.3
	c-0.2,1.3-0.2,2.6-0.2,3.9c1.1,23.2,2.3,46.4,3.4,69.6c0,0.4,0,1.1,0.1,2.2s0.1,1.7,0.1,1.9c-0.3,0.4-0.5,0.7-0.8,1.1
	c0,0.1-0.1-0.3-0.2-1.3s-0.1-2.7-0.2-5.3s-0.2-5-0.3-7.3c0-1.1-0.1-2.6-0.2-4.5s-0.2-4.5-0.3-7.7s-0.4-7.6-0.7-13.4s-0.6-12.1-1-19
	c-0.4-6.4-0.6-10.6-0.8-12.3s-0.4-2.6-0.6-2.6c-0.3,0.7-0.8,2-1.5,3.8s-1.4,4-2.1,6.5c0.5,23.9,1,47.9,1.5,71.8l-1,1.2
	c-0.1-4.6-0.1-9.5-0.2-14.7s-0.1-10.4-0.2-15.5s-0.1-7.9-0.1-8.5c-0.2-11.6-0.3-17.3-0.3-17c0-1.7-0.1-4.5-0.2-8.4s-0.2-8.6-0.3-14
	c-0.3-6.3-0.4-9.4-0.6-15.7l-0.1-4.8C116.6,2.1,118.8,1.7,121,1.5z M116.2,5.5c-0.5,0.9-0.7,2-0.5,3c0.1,5.3,0.2,7.9,0.3,13.2
	c1.1-1.7,1.9-3.5,2.6-5.3c0.9-2.2,1.5-4.4,2.1-6.4c0.5-1.4,0.8-2.8,0.9-4.3c0-1-0.4-1.5-1-1.4c-0.4,0.1-0.8,0.1-1.2,0.3
	c-0.5,0.1-1,0.2-1.5,0.3C117.3,4.7,116.6,5,116.2,5.5z"/>
<path class="st0" d="M124.9,49.8c0.4-9.9,0.8-19.8,1.5-29.6c0.6-9.4,1.2-15.5,1.8-18.7h0.8c-0.5,4.9-1,10.3-1.5,16.5
	c-0.5,6.1-0.8,12.4-1.1,18.9s-0.5,12.6-0.6,18.5s-0.1,11,0,15.2c0.2,9.9,1.8,12.8,4.8,8c0.3-0.4,0.4-0.6,0.7-1.1l0.6-0.9
	c0.2-0.4,0.4-0.6,0.5-0.8c0.4-0.6,0.6-1.3,0.8-2c0.2-1,0.2-2,0.2-3.1c0-2.2-0.1-6-0.2-11.2s-0.2-10.9-0.3-17.2
	c-0.1-7.2-0.3-13.5-0.4-19c-0.1-5.5-0.3-10.3-0.4-14.4s-0.3-6.6-0.4-7.4l1.6-0.1c0,0.1,0,0.2,0,0.2c0,0.1,0,0.3-0.1,0.6
	c0,5.1,0.1,13.8,0.4,26.4c0.1,9,0.3,17.9,0.5,26.8c0.2,8.8,0.3,15.3,0.4,19.3c-2,3.6-3,5.4-5,8.7c-1.2,1.9-2.3,1.9-3.2-0.4
	s-1.5-6.6-1.6-12.7C124.3,67.1,124.5,60.1,124.9,49.8z"/>
<path class="st0" d="M138.9,14.3c0.2-3.4,0.7-6.7,1.5-9.9c0.7-2.5,1.6-3.6,2.8-3.6h0.9c0.1,0.3,0.1,0.5,0.1,0.8c0,0.1,0,0.3,0,0.4
	c0,0.1,0,0.3,0,0.4l-0.8,0.1c-1.1,0.1-2,1.3-2.5,3.8c-0.6,3.1-1,6.2-1,9.3c-0.1,3.6-0.3,9.1-0.4,16.3S139,45,138.9,49.2
	c-0.1,3.4-0.3,6.2-0.4,8.3s-0.4,4.3-0.7,6.7c-0.3,2.1-0.7,4.2-1.4,6.3c-0.3,0.8-0.6,1.5-1,2.2c-0.2,0.4-0.4,0.6-0.5,0.9
	s-0.3,0.4-0.3,0.5c0.1-1.9,0.2-2.8,0.2-2.8s0.1-0.1,0.2-0.1c0.1-0.1,0.3-0.3,0.3-0.5c0.9-2,1.5-4.2,1.8-6.4c0.4-2.8,0.7-6,0.9-9.5
	s0.3-7.5,0.3-11.8s0.1-9,0.1-13.8C138.4,23.4,138.6,18.4,138.9,14.3z"/>
</svg>
